<svg width="68" height="68" viewBox="0 0 68 68" fill="none" xmlns="http://www.w3.org/2000/svg">
<path d="M34 66.9629C52.2254 66.9629 67 52.1883 67 33.9629C67 15.7375 52.2254 0.962891 34 0.962891C15.7746 0.962891 1 15.7375 1 33.9629C1 52.1883 15.7746 66.9629 34 66.9629Z" stroke="#003BD1" stroke-miterlimit="10" stroke-linecap="round"/>
<path d="M40.7833 48.4389C40.5825 46.2224 40.6595 44.6755 40.6595 42.6501C41.6633 42.1235 43.4618 38.7658 43.7657 35.9291C44.5549 35.8645 45.7993 35.0945 46.1637 32.0544C46.3603 30.4223 45.5793 29.5038 45.1035 29.215C46.3878 25.3526 49.0553 13.4039 40.17 12.1691C39.2557 10.5631 36.914 9.7505 33.8712 9.7505C21.6969 9.97463 20.2284 18.9438 22.8973 29.215C22.4229 29.5038 21.6419 30.4223 21.8372 32.0544C22.2029 35.0945 23.4459 35.8645 24.2352 35.9291C24.5377 38.7644 26.4077 42.1235 27.4142 42.6501C27.4142 44.6755 27.4898 46.2224 27.289 48.4389C25.5552 53.1001 16.6507 53.4645 11.5137 57.9594C16.8844 63.3673 25.5882 67.2351 34.7732 67.2351C43.9582 67.2351 54.7547 59.9834 56.5518 58.0048C51.4464 53.4686 42.5213 53.1166 40.7833 48.4389Z" stroke="#003BD1" stroke-miterlimit="10" stroke-linecap="round"/>
</svg>
