<svg width="31" height="30" viewBox="0 0 31 30" fill="none" xmlns="http://www.w3.org/2000/svg">
<path d="M8.58333 0C3.98167 0 0.25 3.73167 0.25 8.33333V21.6667C0.25 26.2683 3.98167 30 8.58333 30H21.9167C26.5183 30 30.25 26.2683 30.25 21.6667V8.33333C30.25 3.73167 26.5183 0 21.9167 0H8.58333ZM25.25 3.33333C26.17 3.33333 26.9167 4.08 26.9167 5C26.9167 5.92 26.17 6.66667 25.25 6.66667C24.33 6.66667 23.5833 5.92 23.5833 5C23.5833 4.08 24.33 3.33333 25.25 3.33333ZM15.25 6.66667C19.8517 6.66667 23.5833 10.3983 23.5833 15C23.5833 19.6017 19.8517 23.3333 15.25 23.3333C10.6483 23.3333 6.91667 19.6017 6.91667 15C6.91667 10.3983 10.6483 6.66667 15.25 6.66667ZM15.25 10C13.9239 10 12.6521 10.5268 11.7145 11.4645C10.7768 12.4021 10.25 13.6739 10.25 15C10.25 16.3261 10.7768 17.5979 11.7145 18.5355C12.6521 19.4732 13.9239 20 15.25 20C16.5761 20 17.8479 19.4732 18.7855 18.5355C19.7232 17.5979 20.25 16.3261 20.25 15C20.25 13.6739 19.7232 12.4021 18.7855 11.4645C17.8479 10.5268 16.5761 10 15.25 10Z" fill="white"/>
</svg>
