<svg width="261" height="61" viewBox="0 0 261 61" fill="none" xmlns="http://www.w3.org/2000/svg">
<g style="mix-blend-mode:multiply" opacity="0.85">
<mask id="mask0_33_119" style="mask-type:luminance" maskUnits="userSpaceOnUse" x="0" y="0" width="261" height="50">
<path d="M260.149 0.850586H0.850586V49.3854H260.149V0.850586Z" fill="white"/>
</mask>
<g mask="url(#mask0_33_119)">
<mask id="mask1_33_119" style="mask-type:luminance" maskUnits="userSpaceOnUse" x="0" y="0" width="261" height="50">
<path d="M260.149 0.850586H0.850586V49.3854H260.149V0.850586Z" fill="white"/>
</mask>
<g mask="url(#mask1_33_119)">
<path d="M252.77 28.2328C252.77 16.7809 243.446 7.46167 231.989 7.46167H29.0033C17.5456 7.46167 8.22168 16.7809 8.22168 28.2328C8.22168 39.6848 17.5456 49.004 29.0033 49.004H231.989C243.446 49.004 252.77 39.6848 252.77 28.2328Z" fill="#003BD1"/>
</g>
</g>
</g>
<mask id="mask2_33_119" style="mask-type:luminance" maskUnits="userSpaceOnUse" x="0" y="0" width="261" height="51">
<path d="M261 0H0V50.2298H261V0Z" fill="white"/>
</mask>
<g mask="url(#mask2_33_119)">
<path d="M252.771 28.2328C252.771 16.7809 243.447 7.46167 231.99 7.46167H29.0043C17.5465 7.46167 8.22266 16.7809 8.22266 28.2328C8.22266 39.6848 17.5465 49.004 29.0043 49.004H231.99C232.421 49.004 232.841 48.9852 233.266 48.9602C233.129 48.4411 232.991 47.9219 232.853 47.4216C232.565 47.4341 232.278 47.4466 231.99 47.4466H29.0043C18.4101 47.4466 9.78707 38.8279 9.78707 28.2391C9.78707 17.6502 18.4101 9.02529 29.0043 9.02529H231.99C242.584 9.02529 251.207 17.644 251.207 28.2328C251.207 33.9119 248.729 39.0218 244.793 42.5368C245.387 42.6932 245.982 42.8558 246.57 43.0122C250.393 39.2407 252.771 34.012 252.771 28.2328Z" fill="white"/>
<path d="M252.771 28.2328C252.771 16.7809 243.447 7.46167 231.99 7.46167H29.0043C17.5465 7.46167 8.22266 16.7809 8.22266 28.2328C8.22266 39.6848 17.5465 49.004 29.0043 49.004H231.99C232.421 49.004 232.841 48.9852 233.266 48.9602C233.129 48.4411 232.991 47.9219 232.853 47.4216C232.565 47.4341 232.278 47.4466 231.99 47.4466H29.0043C18.4101 47.4466 9.78707 38.8279 9.78707 28.2391C9.78707 17.6502 18.4101 9.02529 29.0043 9.02529H231.99C242.584 9.02529 251.207 17.644 251.207 28.2328C251.207 33.9119 248.729 39.0218 244.793 42.5368C245.387 42.6932 245.982 42.8558 246.57 43.0122C250.393 39.2407 252.771 34.012 252.771 28.2328Z" stroke="white" stroke-width="4.49" stroke-miterlimit="10"/>
</g>
<path d="M32.8779 28.7394C32.8779 26.0187 34.8053 23.9797 37.7151 23.9797C40.6249 23.9797 42.5522 25.9061 42.5522 28.7394C42.5522 31.5727 40.5498 33.4803 37.7151 33.4803C34.8804 33.4803 32.8779 31.4413 32.8779 28.7394ZM40.3996 28.7394C40.3996 27.0382 39.2294 25.8874 37.7151 25.8874C36.1069 25.8874 35.0306 27.132 35.0306 28.7394C35.0306 30.3468 36.1256 31.5539 37.7151 31.5539C39.2044 31.5539 40.3996 30.4031 40.3996 28.7394Z" fill="white"/>
<path d="M46.8195 32.1042H46.782V33.3301H44.7607V19.4326H46.8758V25.2118H46.8946C47.6142 24.3987 48.6155 23.9859 49.8232 23.9859C52.3763 23.9859 54.2849 25.9873 54.2849 28.7643C54.2849 31.5413 52.3763 33.4864 49.8044 33.4864C48.484 33.4864 47.5016 32.9923 46.8195 32.1105V32.1042ZM52.1322 28.7831C52.1322 27.0068 50.9433 25.8935 49.4665 25.8935C47.8771 25.8935 46.782 27.1381 46.782 28.7831C46.782 30.428 47.9709 31.5601 49.4853 31.5601C50.9996 31.5601 52.1322 30.4092 52.1322 28.7831Z" fill="white"/>
<path d="M55.7182 32.1418L56.7757 30.5532C57.5141 31.2725 58.3088 31.629 59.4415 31.629C60.255 31.629 60.7243 31.2725 60.7243 30.7221C60.7243 30.253 60.1173 30.0216 58.9096 29.6088C57.3952 29.0834 56.0936 28.4017 56.0936 26.5879C56.0936 25.0743 57.4515 23.9797 59.3413 23.9797C60.5115 23.9797 61.5691 24.2987 62.5891 25.1306L61.5315 26.7943C60.7931 26.0938 59.9421 25.8123 59.2287 25.8123C58.8157 25.8123 58.2275 26.0375 58.2275 26.6066C58.2275 27.0569 58.7969 27.3822 59.6855 27.7199C61.6504 28.4955 62.8769 28.852 62.8769 30.6845C62.8769 32.2357 61.7818 33.4803 59.4352 33.4803C57.9396 33.4803 56.6756 32.9862 55.7119 32.1418H55.7182Z" fill="white"/>
<path d="M73.3459 29.4211H66.6189C66.8817 30.7596 67.8829 31.5539 69.3222 31.5539C70.4173 31.5539 71.1744 31.0598 71.6438 30.4781L73.1206 31.7416C72.3446 32.7423 71.1932 33.4803 69.2095 33.4803C66.4124 33.4803 64.4287 31.6102 64.4287 28.7206C64.4287 25.8311 66.3561 23.9797 69.0594 23.9797C71.7627 23.9797 73.4084 25.9249 73.4084 28.6081C73.4084 28.9458 73.3709 29.271 73.3521 29.4211H73.3459ZM66.6564 27.7574H71.2683C71.0055 26.6441 70.2483 25.8874 69.0406 25.8874C67.8329 25.8874 66.9631 26.5503 66.6564 27.7574Z" fill="white"/>
<path d="M75.5922 24.111H77.7073V25.487H77.7448C78.4645 24.5238 79.4845 23.9734 80.5983 23.9734H80.8611V26.3313C80.6171 26.3126 80.373 26.2938 80.2166 26.2938C78.6084 26.2938 77.701 27.4446 77.701 28.9582V33.3238H75.5859V24.1047L75.5922 24.111Z" fill="white"/>
<path d="M81.619 24.1111H83.8842L86.2809 30.6845H86.2997L88.6964 24.1111H90.9428L87.2759 33.3302H85.2547L81.6064 24.1111H81.619Z" fill="white"/>
<path d="M91.6309 28.7582C91.6309 25.9812 93.5394 23.9797 96.0738 23.9797C97.244 23.9797 98.264 24.4113 98.9273 25.2431L98.9648 25.2244V24.1111H101.08V33.3302H99.0587V32.1231L99.0211 32.1043C98.3578 32.9925 97.3754 33.4803 96.0926 33.4803C93.5394 33.4803 91.6309 31.6102 91.6309 28.7582ZM99.0587 28.7769C99.0587 27.132 97.9448 25.8874 96.4305 25.8874C94.9161 25.8874 93.7835 27.0007 93.7835 28.7769C93.7835 30.4031 94.8598 31.5539 96.4305 31.5539C97.8635 31.5539 99.0587 30.4406 99.0587 28.7769Z" fill="white"/>
<path d="M103.915 30.4218V25.906H102.782V24.111H103.915V21.0526L106.03 20.8274V24.111H108.733V25.906H106.03V30.2091C106.03 31.1535 106.312 31.4913 106.919 31.4913C107.275 31.4913 107.788 31.3599 108.276 31.0973L108.827 32.9298C108.276 33.23 107.694 33.4802 106.487 33.4802C104.897 33.4802 103.915 32.4795 103.915 30.4218Z" fill="white"/>
<path d="M109.678 28.7394C109.678 26.0187 111.605 23.9797 114.515 23.9797C117.425 23.9797 119.352 25.9061 119.352 28.7394C119.352 31.5727 117.35 33.4803 114.515 33.4803C111.68 33.4803 109.678 31.4413 109.678 28.7394ZM117.199 28.7394C117.199 27.0382 116.029 25.8874 114.515 25.8874C112.907 25.8874 111.83 27.132 111.83 28.7394C111.83 30.3468 112.925 31.5539 114.515 31.5539C116.004 31.5539 117.199 30.4031 117.199 28.7394Z" fill="white"/>
<path d="M121.561 24.111H123.676V25.487H123.714C124.433 24.5238 125.453 23.9734 126.567 23.9734H126.83V26.3313C126.586 26.3126 126.336 26.2938 126.185 26.2938C124.577 26.2938 123.67 27.4446 123.67 28.9582V33.3238H121.555V24.1047L121.561 24.111Z" fill="white"/>
<path d="M128.357 21.3402C128.357 20.5834 128.983 19.9392 129.772 19.9392C130.56 19.9392 131.205 20.5834 131.205 21.3402C131.205 22.097 130.56 22.7537 129.772 22.7537C128.983 22.7537 128.357 22.1095 128.357 21.3402ZM128.714 24.1172H130.829V33.3363H128.714V24.1172Z" fill="white"/>
<path d="M133.176 28.7394C133.176 26.0187 135.103 23.9797 138.013 23.9797C140.923 23.9797 142.85 25.9061 142.85 28.7394C142.85 31.5727 140.848 33.4803 138.013 33.4803C135.178 33.4803 133.176 31.4413 133.176 28.7394ZM140.697 28.7394C140.697 27.0382 139.527 25.8874 138.013 25.8874C136.405 25.8874 135.328 27.132 135.328 28.7394C135.328 30.3468 136.423 31.5539 138.013 31.5539C139.502 31.5539 140.697 30.4031 140.697 28.7394Z" fill="white"/>
<path d="M145.553 25.0554H144.364V24.1672H145.553V22.1283C145.553 20.2207 146.498 19.3325 147.975 19.3325C148.788 19.3325 149.408 19.5577 149.94 19.8642L149.733 20.7523C149.183 20.4708 148.657 20.2832 148.069 20.2832C147.199 20.2832 146.554 20.8148 146.554 22.2096V24.1735H149.483V25.0616H146.554V33.3363H145.553V25.0616V25.0554Z" fill="white"/>
<path d="M151.035 21.359C151.035 20.8836 151.392 20.5459 151.867 20.5459C152.343 20.5459 152.7 20.8836 152.7 21.359C152.7 21.8343 152.343 22.1908 151.867 22.1908C151.392 22.1908 151.035 21.8156 151.035 21.359ZM151.336 24.1735H152.337V33.3363H151.336V24.1735Z" fill="white"/>
<path d="M155.415 24.1734H156.416V26.1186H156.454C157.061 24.8551 158.156 24.0796 159.57 24.0796H160.064V25.1929C159.858 25.1741 159.645 25.1554 159.476 25.1554C157.605 25.1554 156.416 26.6689 156.416 28.8393V33.3362H155.415V24.1734Z" fill="white"/>
<path d="M159.233 36.8639L159.402 35.9382C159.74 36.1446 160.197 36.2196 160.497 36.2196C161.254 36.2196 161.78 35.7693 161.78 34.5935V24.1672H162.781V34.5935C162.781 36.0883 162.118 37.1641 160.628 37.1641C160.209 37.1641 159.721 37.089 159.227 36.8639H159.233ZM161.461 21.359C161.461 20.8836 161.817 20.5459 162.293 20.5459C162.768 20.5459 163.125 20.8836 163.125 21.359C163.125 21.8343 162.768 22.1908 162.293 22.1908C161.817 22.1908 161.461 21.8156 161.461 21.359Z" fill="white"/>
<path d="M164.921 28.8144C164.921 26.15 166.792 24.0735 169.439 24.0735C170.991 24.0735 172.33 24.8866 173.012 26.2438H173.031V24.1673H174.032V33.3301H173.068V31.2724L173.031 31.2536C172.368 32.5546 171.103 33.4239 169.439 33.4239C166.923 33.4239 164.921 31.5914 164.921 28.8144ZM173.062 28.8331C173.062 26.7004 171.629 24.9991 169.564 24.9991C167.499 24.9991 165.953 26.5127 165.953 28.8331C165.953 30.8721 167.386 32.4795 169.545 32.4795C171.473 32.4795 173.062 31.0222 173.062 28.8331Z" fill="white"/>
<path d="M176.86 24.1734H177.862V26.1936H177.899C178.581 24.8551 179.883 24.0796 181.453 24.0796C183.418 24.0796 184.682 25.343 184.682 27.8573V33.3362H183.681V28.1825C183.681 25.8434 182.624 25.0115 181.203 25.0115C179.201 25.0115 177.862 26.4876 177.862 28.7892V33.3425H176.86V24.1797V24.1734Z" fill="white"/>
<path d="M186.784 32.7797C186.784 32.4232 187.053 32.1543 187.422 32.1543C187.792 32.1543 188.061 32.4232 188.061 32.7797C188.061 33.1363 187.779 33.4052 187.422 33.4052C187.066 33.4052 186.784 33.1363 186.784 32.7797Z" fill="white"/>
<path d="M189.162 29.8902C189.162 27.8137 190.558 26.3689 192.56 26.3689C193.555 26.3689 194.581 26.7504 195.245 27.5197L194.706 28.0013C194.25 27.4447 193.499 27.0631 192.585 27.0631C190.996 27.0631 189.926 28.2265 189.926 29.8777C189.926 31.5288 191.008 32.6922 192.585 32.6922C193.436 32.6922 194.262 32.3357 194.744 31.7665L195.257 32.2481C194.675 32.9173 193.736 33.3989 192.529 33.3989C190.539 33.3989 189.162 31.9479 189.162 29.8902Z" fill="white"/>
<path d="M196.271 29.8902C196.271 27.945 197.678 26.3689 199.781 26.3689C201.758 26.3689 203.292 27.7887 203.292 29.8902C203.292 31.9917 201.758 33.3989 199.781 33.3989C197.678 33.3989 196.271 31.8353 196.271 29.8902ZM202.528 29.8902C202.528 28.2015 201.308 27.0631 199.787 27.0631C198.135 27.0631 197.046 28.3266 197.046 29.8902C197.046 31.4538 198.142 32.6922 199.787 32.6922C201.32 32.6922 202.528 31.5539 202.528 29.8902Z" fill="white"/>
<path d="M204.925 26.4377H205.676V27.945H205.688C206.201 26.9506 207.121 26.3689 208.147 26.3689C209.299 26.3689 210.05 27.0194 210.35 28.1327H210.381C210.863 27.0256 211.833 26.3689 212.953 26.3689C214.518 26.3689 215.3 27.4759 215.3 29.3648V33.3301H214.549V29.6087C214.549 27.92 213.923 27.0631 212.784 27.0631C211.545 27.0631 210.538 28.1702 210.538 29.9214V33.3301H209.787V29.6087C209.787 27.92 209.117 27.0631 207.979 27.0631C206.683 27.0631 205.676 28.1702 205.676 29.9214V33.3301H204.925V26.4377Z" fill="white"/>
<path d="M216.939 32.7797C216.939 32.4232 217.209 32.1543 217.578 32.1543C217.947 32.1543 218.216 32.4232 218.216 32.7797C218.216 33.1363 217.934 33.4052 217.578 33.4052C217.221 33.4052 216.939 33.1363 216.939 32.7797Z" fill="white"/>
<path d="M220.764 31.7789H220.751V33.3301H220.013V22.8726H220.764V27.9887H220.776C221.314 26.963 222.309 26.3688 223.479 26.3688C225.482 26.3688 226.877 27.9324 226.877 29.9339C226.877 31.9353 225.382 33.3989 223.479 33.3989C222.215 33.3989 221.264 32.7609 220.764 31.7789ZM226.095 29.9464C226.095 28.2014 224.887 27.0631 223.379 27.0631C221.871 27.0631 220.751 28.339 220.751 29.9464C220.751 31.5538 221.934 32.6858 223.398 32.6858C225.019 32.6858 226.101 31.4787 226.101 29.9464H226.095Z" fill="white"/>
<path d="M228.517 26.4377H229.268V27.9012H229.293C229.749 26.9506 230.569 26.3689 231.639 26.3689H232.008V27.207C231.852 27.1945 231.695 27.1757 231.57 27.1757C230.162 27.1757 229.268 28.314 229.268 29.9465V33.3301H228.517V26.4377Z" fill="white"/>
<mask id="mask3_33_119" style="mask-type:luminance" maskUnits="userSpaceOnUse" x="224" y="32" width="37" height="30">
<path d="M260.524 32.8735H224.624V61.0062H260.524V32.8735Z" fill="white"/>
</mask>
<g mask="url(#mask3_33_119)">
<path d="M246.163 49.2291L252.439 44.9573C251.707 44.7634 232.853 39.7098 232.002 39.4846C232.146 40.0288 237.333 59.3739 237.477 59.9118L241.751 53.6385L248.735 60.6185L253.153 56.2029L246.169 49.2229L246.163 49.2291Z" fill="white"/>
</g>
</svg>
