<svg width="20" height="20" viewBox="0 0 20 20" fill="none" xmlns="http://www.w3.org/2000/svg">
<path d="M0.000703786 7.95561C-0.0171962 8.50496 0.307244 9.10557 0.872154 9.36568L7.54545 12.4371L10.5645 19.1132C10.8206 19.6798 11.4198 20.008 11.969 19.993C12.5183 19.9779 13.0977 19.617 13.3225 19.0373L19.9005 2.07085C20.1256 1.48997 19.9475 0.834814 19.558 0.443984C19.1275 -0.0245056 18.4499 -0.0887081 17.9311 0.0959619L0.961914 6.60493C0.272114 6.90009 0.0211938 7.35927 0.000703786 7.95561ZM2.78769 8.04671L17.648 2.34843L11.8931 17.1963L9.21379 11.2743C9.11449 11.0551 8.93943 10.879 8.72078 10.7784L2.78769 8.04671Z" fill="black"/>
</svg>
