<svg width="50" height="54" viewBox="0 0 50 54" fill="none" xmlns="http://www.w3.org/2000/svg">
<path d="M24.9997 46.906C14.4394 46.906 5.84766 37.8782 5.84766 26.7818C5.84766 15.6853 14.4394 6.65799 24.9997 6.65799C35.5601 6.65799 44.1518 15.6853 44.1518 26.7818C44.1518 37.8782 35.5601 46.906 24.9997 46.906ZM24.9997 8.63561C15.4773 8.63561 7.72974 16.776 7.72974 26.7818C7.72974 36.788 15.4773 44.9284 24.9997 44.9284C34.5221 44.9284 42.2697 36.788 42.2697 26.7818C42.2697 16.776 34.5221 8.63561 24.9997 8.63561Z" fill="#444444"/>
<path d="M24.9993 36.6273C19.8325 36.6273 15.6289 32.2108 15.6289 26.7817C15.6289 21.3527 19.8325 16.9352 24.9993 16.9352C30.1661 16.9352 34.3702 21.3522 34.3702 26.7817C34.3702 32.2113 30.1661 36.6273 24.9993 36.6273ZM24.9993 18.9128C20.8705 18.9128 17.511 22.4429 17.511 26.7817C17.511 31.1197 20.8705 34.6497 24.9993 34.6497C29.1286 34.6497 32.4881 31.1197 32.4881 26.7817C32.4881 22.4429 29.1286 18.9128 24.9993 18.9128Z" fill="#444444"/>
<path d="M24.9996 8.63561C24.4802 8.63561 24.0586 8.19262 24.0586 7.6468V1.48503C24.0586 0.939203 24.4802 0.496216 24.9996 0.496216C25.5191 0.496216 25.9407 0.939203 25.9407 1.48503V7.6463C25.9407 8.19262 25.5196 8.63561 24.9996 8.63561Z" fill="#444444"/>
<path d="M24.9996 53.0337C24.4802 53.0337 24.0586 52.5907 24.0586 52.0449V45.9172C24.0586 45.3714 24.4802 44.9284 24.9996 44.9284C25.5191 44.9284 25.9407 45.3714 25.9407 45.9172V52.0449C25.9407 52.5907 25.5196 53.0337 24.9996 53.0337Z" fill="#444444"/>
<path d="M6.7882 27.7706H0.94104C0.421586 27.7706 0 27.3276 0 26.7818C0 26.2355 0.421586 25.793 0.94104 25.793H6.7882C7.30765 25.793 7.72924 26.2355 7.72924 26.7818C7.72924 27.3276 7.30765 27.7706 6.7882 27.7706Z" fill="#444444"/>
<path d="M49.0587 27.7706H43.2106C42.6911 27.7706 42.2695 27.3276 42.2695 26.7818C42.2695 26.2355 42.6911 25.793 43.2106 25.793H49.0587C49.5781 25.793 49.9997 26.2355 49.9997 26.7818C49.9997 27.3276 49.5781 27.7706 49.0587 27.7706Z" fill="#444444"/>
</svg>
